# xmcd CD database file
#
# Track frame offsets:
#	150
#	38908
#	54340
#	58430
#	64983
#	92808
#	124283
#	140883
#	159320
#	188698
#	210228
#	230893
#
# Disc length: 3297 seconds
#
# Revision: 1
# Processed by: cddbd v1.5.2PL0 Copyright (c) Steve Scherf et al.
# Submitted via: CDex 1.70beta2
#
DISCID=b50cdf0c
DTITLE=吉田拓郎 - COMPLETE TAKURO TOUR1979 Disc2
DYEAR=1979
DGENRE=Folk
TTITLE0=イメージの詩
TTITLE1=結婚しようよ
TTITLE2=準ちゃん
TTITLE3=かくれましょう
TTITLE4=祭のあと
TTITLE5=外は白い雪の夜
TTITLE6=今日までそして明日から
TTITLE7=伽草子
TTITLE8=僕の唄はサヨナラだけ
TTITLE9=冷たい雨が降っている
TTITLE10=英雄
TTITLE11=落陽
EXTD=YEAR: 1979
EXTT0=
EXTT1=
EXTT2=
EXTT3=
EXTT4=
EXTT5=
EXTT6=
EXTT7=
EXTT8=
EXTT9=
EXTT10=
EXTT11=
PLAYORDER=
